<svg width="112" height="24" viewBox="0 0 112 24" fill="none" xmlns="http://www.w3.org/2000/svg">
<g clip-path="url(#clip0_183_1163)">
<path d="M23.7136 4.17432C21.8743 3.33228 19.9327 2.73491 17.9382 2.39746C17.6653 2.88536 17.4183 3.38734 17.1984 3.9013C15.0739 3.58116 12.9134 3.58116 10.7889 3.9013C10.5688 3.38739 10.3219 2.88542 10.0491 2.39746C8.05333 2.73776 6.11039 3.33655 4.26931 4.17873C0.614287 9.58637 -0.376532 14.8597 0.118877 20.0582C2.25935 21.6397 4.65515 22.8424 7.20213 23.6141C7.77564 22.8428 8.28312 22.0245 8.71919 21.1679C7.89094 20.8586 7.09153 20.4769 6.33021 20.0274C6.53058 19.882 6.72654 19.7323 6.9159 19.587C9.13114 20.6288 11.549 21.1689 13.997 21.1689C16.4449 21.1689 18.8628 20.6288 21.078 19.587C21.2696 19.7433 21.4655 19.893 21.6637 20.0274C20.9009 20.4776 20.1 20.86 19.2703 21.1701C19.7058 22.0263 20.2134 22.8439 20.7874 23.6141C23.3365 22.8455 25.7342 21.6433 27.875 20.0604C28.4563 14.0318 26.882 8.80693 23.7136 4.17432ZM9.34671 16.8612C7.96617 16.8612 6.82562 15.6083 6.82562 14.0671C6.82562 12.5258 7.92653 11.2619 9.3423 11.2619C10.7581 11.2619 11.8898 12.5258 11.8656 14.0671C11.8414 15.6083 10.7537 16.8612 9.34671 16.8612ZM18.6472 16.8612C17.2645 16.8612 16.1283 15.6083 16.1283 14.0671C16.1283 12.5258 17.2292 11.2619 18.6472 11.2619C20.0652 11.2619 21.1881 12.5258 21.1639 14.0671C21.1397 15.6083 20.0542 16.8612 18.6472 16.8612Z" fill="#889494"/>
<path d="M37.6182 6.84491H43.6291C45.0779 6.84491 46.3036 7.07096 47.3062 7.52307C48.2292 7.91113 49.013 8.56979 49.5542 9.41222C50.0609 10.2444 50.3205 11.2035 50.3029 12.1777C50.314 13.1563 50.0442 14.1176 49.5256 14.9476C48.9471 15.8243 48.1198 16.5083 47.1498 16.9116C46.0871 17.396 44.7697 17.6374 43.1976 17.636H37.6182V6.84491ZM43.1359 14.8903C44.1121 14.8903 44.8622 14.6467 45.3862 14.1593C45.6519 13.9016 45.8595 13.5902 45.9951 13.2458C46.1306 12.9013 46.191 12.5319 46.1722 12.1623C46.1886 11.8191 46.1349 11.4763 46.0146 11.1545C45.8942 10.8328 45.7096 10.5389 45.4721 10.2907C45.0023 9.82396 44.2956 9.58983 43.3517 9.58836H41.4713V14.8903H43.1359Z" fill="#889494"/>
<path d="M59.304 17.6192C58.511 17.4205 57.7524 17.1035 57.0537 16.679V14.1205C57.6637 14.5641 58.3505 14.8911 59.0794 15.0849C59.8768 15.3282 60.7052 15.455 61.5388 15.4614C61.8265 15.4768 62.114 15.4271 62.3799 15.3161C62.5693 15.2192 62.664 15.0959 62.664 14.9682C62.666 14.8968 62.6534 14.8258 62.6268 14.7596C62.6003 14.6933 62.5605 14.6331 62.5098 14.5829C62.3339 14.4476 62.1275 14.3576 61.9087 14.3209L60.0592 13.9047C58.9994 13.6581 58.2471 13.3168 57.8023 12.8809C57.5791 12.6557 57.405 12.3865 57.2913 12.0905C57.1776 11.7945 57.1267 11.478 57.1418 11.1613C57.1344 10.5872 57.3435 10.0314 57.7275 9.60458C58.1827 9.12298 58.7569 8.76985 59.392 8.58074C60.2094 8.32382 61.0631 8.20113 61.9197 8.21744C62.7194 8.20993 63.5169 8.30314 64.2933 8.49487C64.9204 8.64345 65.5227 8.88227 66.0812 9.20385V11.6258C65.5574 11.322 64.9943 11.0916 64.4078 10.9411C63.7723 10.7707 63.1171 10.6848 62.4592 10.6857C61.4933 10.6857 61.0104 10.8501 61.0104 11.1789C61.0088 11.2521 61.0288 11.3242 61.068 11.386C61.1071 11.4479 61.1637 11.4969 61.2306 11.5268C61.4945 11.639 61.771 11.7188 62.054 11.7646L63.5953 12.042C64.5964 12.2181 65.3428 12.5264 65.8346 12.9667C66.3263 13.4071 66.5729 14.0515 66.5744 14.8999C66.5822 15.3461 66.4731 15.7865 66.258 16.1774C66.0428 16.5683 65.7291 16.8961 65.348 17.1282C64.5362 17.6727 63.3773 17.9443 61.8713 17.9428C61.0053 17.9442 60.1426 17.8354 59.304 17.6192Z" fill="#889494"/>
<path d="M70.2161 17.295C69.3921 16.9164 68.6976 16.3039 68.219 15.5336C67.7726 14.7782 67.544 13.914 67.5585 13.0367C67.5452 12.16 67.7861 11.2981 68.2521 10.5553C68.7487 9.79711 69.4558 9.20027 70.2865 8.83788C71.2966 8.39775 72.3909 8.1843 73.4924 8.21257C75.0337 8.21257 76.3129 8.53623 77.3302 9.18356V12.0085C76.9432 11.7483 76.5204 11.5458 76.0751 11.4074C75.5767 11.25 75.0566 11.172 74.5339 11.1762C73.5783 11.1762 72.8304 11.3509 72.2902 11.7002C72.0474 11.8358 71.8448 12.0332 71.703 12.2724C71.5613 12.5117 71.4854 12.7842 71.4832 13.0623C71.4809 13.3403 71.5524 13.614 71.6903 13.8555C71.8282 14.097 72.0276 14.2977 72.2682 14.4371C72.7922 14.7908 73.5526 14.9677 74.5493 14.9677C75.0637 14.969 75.5756 14.8948 76.0685 14.7475C76.5182 14.6186 76.9501 14.4345 77.3544 14.1993V16.9295C76.163 17.6241 74.8029 17.9762 73.4241 17.9468C72.3191 17.9769 71.2218 17.754 70.2161 17.295Z" fill="#889494"/>
<path d="M81.1678 17.2954C80.3346 16.9149 79.6278 16.3037 79.1311 15.534C78.6631 14.7804 78.4202 13.9087 78.4309 13.0217C78.416 12.1452 78.6595 11.2837 79.1311 10.5447C79.6304 9.79453 80.3341 9.20314 81.159 8.84046C83.1852 8.0184 85.452 8.0184 87.4782 8.84046C88.2998 9.20036 89.0007 9.78886 89.4973 10.5358C89.9657 11.2776 90.2068 12.1402 90.1909 13.0173C90.2018 13.9034 89.9613 14.7745 89.4973 15.5296C89.0061 16.2998 88.3026 16.9115 87.4716 17.291C86.4757 17.7181 85.4034 17.9383 84.3197 17.9383C83.2361 17.9383 82.1637 17.7181 81.1678 17.291V17.2954ZM85.8511 14.5608C86.0415 14.3642 86.1897 14.1307 86.2867 13.8748C86.3836 13.6188 86.4272 13.3457 86.4147 13.0723C86.4281 12.8015 86.3848 12.5308 86.2878 12.2776C86.1907 12.0244 86.042 11.7941 85.8511 11.6015C85.644 11.4116 85.4008 11.2652 85.1361 11.171C84.8713 11.0768 84.5903 11.0368 84.3098 11.0533C84.0294 11.0385 83.7489 11.0794 83.4844 11.1735C83.2199 11.2676 82.9766 11.413 82.7685 11.6015C82.5783 11.7945 82.4302 12.0249 82.3336 12.2781C82.237 12.5312 82.1939 12.8017 82.2071 13.0723C82.1947 13.3456 82.2381 13.6184 82.3347 13.8743C82.4312 14.1302 82.5788 14.3638 82.7685 14.5608C82.9746 14.7531 83.2172 14.9019 83.482 14.9983C83.7468 15.0948 84.0284 15.1369 84.3098 15.1222C84.5914 15.1386 84.8734 15.0973 85.1384 15.0007C85.4035 14.9041 85.646 14.7544 85.8511 14.5608Z" fill="#889494"/>
<path d="M99.454 8.78324V12.1168C98.9939 11.8422 98.4635 11.7083 97.9281 11.7315C97.1069 11.7315 96.4727 11.9825 96.0324 12.4801C95.592 12.9777 95.3718 13.7505 95.3718 14.7986V17.6345H91.5957V8.6181H95.2948V11.4805C95.5003 10.4324 95.832 9.65956 96.29 9.16195C96.512 8.91725 96.7845 8.72361 97.0886 8.59437C97.3927 8.46513 97.7212 8.40337 98.0514 8.41333C98.5447 8.39987 99.0315 8.52826 99.454 8.78324Z" fill="#889494"/>
<path d="M112 6.53705V17.6342H108.224V15.6085C107.939 16.3297 107.428 16.9386 106.766 17.3435C106.036 17.7594 105.206 17.9666 104.366 17.9424C103.576 17.9608 102.798 17.7439 102.131 17.3193C101.486 16.8999 100.971 16.3069 100.647 15.6085C100.294 14.8376 100.118 13.9971 100.132 13.1491C100.107 12.2698 100.295 11.3975 100.678 10.606C101.031 9.88099 101.581 9.27039 102.266 8.84455C102.969 8.41822 103.779 8.19918 104.602 8.21263C106.399 8.21263 107.606 8.99354 108.224 10.5554V6.53705H112ZM107.669 14.5076C107.861 14.3182 108.012 14.0907 108.112 13.8398C108.212 13.5888 108.258 13.3199 108.248 13.05C108.256 12.7882 108.209 12.5277 108.109 12.2856C108.009 12.0435 107.859 11.8252 107.669 11.6453C107.237 11.2935 106.697 11.1015 106.14 11.1015C105.583 11.1015 105.043 11.2935 104.611 11.6453C104.421 11.8293 104.272 12.0513 104.174 12.2968C104.076 12.5422 104.03 12.8056 104.04 13.0698C104.031 13.3365 104.077 13.6022 104.176 13.8499C104.276 14.0975 104.426 14.3216 104.617 14.5076C104.82 14.6956 105.057 14.8414 105.317 14.9363C105.576 15.0312 105.852 15.0733 106.128 15.0603C106.409 15.0758 106.69 15.0349 106.954 14.9399C107.219 14.845 107.462 14.698 107.669 14.5076Z" fill="#889494"/>
<path d="M53.4865 9.57827C54.5262 9.57827 55.3691 8.82119 55.3691 7.88728C55.3691 6.95337 54.5262 6.19629 53.4865 6.19629C52.4468 6.19629 51.604 6.95337 51.604 7.88728C51.604 8.82119 52.4468 9.57827 53.4865 9.57827Z" fill="#889494"/>
<path d="M51.6019 10.7426C52.1983 10.9932 52.8387 11.1223 53.4855 11.1223C54.1324 11.1223 54.7728 10.9932 55.3692 10.7426V17.6827H51.6019V10.7426Z" fill="#889494"/>
</g>
<defs>
<clipPath id="clip0_183_1163">
<rect width="112" height="24" fill="white" transform="translate(0 0.000976562)"/>
</clipPath>
</defs>
</svg>
