<svg width="98" height="21" viewBox="0 0 98 21" fill="none" xmlns="http://www.w3.org/2000/svg">
<g clip-path="url(#clip0_32_279)">
<path d="M38.6386 12.4949C38.6386 14.2952 38.9041 16.9321 37.2634 16.9678C35.6512 17.0197 35.7862 14.2245 35.8206 12.3728C35.8537 10.6426 35.7012 8.12833 37.2634 8.11016C38.6892 8.09264 38.6386 10.7309 38.6386 12.4949ZM42.5937 12.4254C42.5242 9.55874 39.9412 7.4631 37.314 7.4631C34.5129 7.4631 31.9506 9.54252 31.8662 12.4254C31.7968 15.3953 34.4279 17.7362 37.3309 17.7005C39.912 17.6668 42.6618 15.5698 42.5937 12.4254ZM27.0019 12.4949C27.0019 14.2952 27.2739 16.9321 25.626 16.9678C24.0139 17.0197 24.1508 14.2245 24.1852 12.3728C24.2177 10.6426 24.0658 8.12833 25.626 8.11016C27.0519 8.09264 27.0019 10.7309 27.0019 12.4949ZM30.9563 12.4254C30.8888 9.55874 28.3038 7.4631 25.6779 7.4631C22.8775 7.4631 20.3139 9.54252 20.2289 12.4254C20.1614 15.3953 22.7925 17.7362 25.6955 17.7005C28.2746 17.6668 31.0238 15.5698 30.9563 12.4254ZM59.2777 17.5662V0.886719C59.0233 1.00808 57.9024 1.69084 57.0535 2.09192C56.5992 2.31583 56.0962 2.56051 55.5952 2.78377V17.5662H59.2777ZM62.8991 2.18603C60.2655 2.18603 60.2655 6.27153 62.8991 6.27153C65.5328 6.27153 65.5347 2.18603 62.8991 2.18603ZM64.7683 17.5629V7.57668C64.5132 7.69804 63.4274 8.09264 62.5616 8.4418C62.1106 8.63456 61.5849 8.8351 61.1027 9.01098V11.2267C61.1092 11.3766 61.1027 11.5298 61.1027 11.67V17.4935H61.0897V17.5629H64.7683ZM83.4545 11.1929H80.7215C80.7215 11.1929 80.5547 8.2153 82.1143 8.2153C83.3753 8.2153 83.4402 9.54187 83.4545 10.1889V11.1929ZM86.1362 11.2812C86.1362 8.86496 84.1839 7.55072 82.1143 7.55072C79.7707 7.5332 77.4804 9.78655 77.4116 12.844C77.3609 15.5504 79.6526 17.7349 82.2668 17.7349C83.0184 17.7422 83.7603 17.5655 84.428 17.2203C85.102 16.8705 85.682 16.3639 86.1193 15.7431V14.8001C86.1193 14.8001 85.6851 15.5867 84.3365 15.5867C80.6949 15.5867 80.6949 11.8303 80.6949 11.8303H86.1193L86.1362 11.2812ZM76.6691 16.8438C76.2154 16.6595 76.0999 16.0248 76.0999 14.7962V10.5387C76.0999 8.90065 74.674 7.70778 73.0788 7.60394C71.9242 7.53255 71.1266 8.00502 70.2939 8.86106L70.0901 9.05317V7.53579C69.8351 7.67208 67.2189 8.77539 66.7257 8.99865V11.6349C66.7386 11.8082 66.7257 11.9679 66.7257 12.0931V17.5642H70.4081V10.7652C70.4081 10.0143 70.6457 9.08886 71.4939 9.08886C72.6667 9.08886 72.4966 10.727 72.4966 11.045V14.8014C72.4966 17.0249 73.2923 17.5597 74.8162 17.5597H77.3875V16.9308C77.145 16.9393 76.9026 16.91 76.6691 16.8438ZM97.2783 16.8438C96.8266 16.6595 96.7098 16.0248 96.7098 14.7962V10.5387C96.7098 8.90065 95.2839 7.70778 93.6886 7.60394C92.5347 7.53255 91.7364 8.00502 90.9038 8.86106L90.7006 9.05317V7.53579C90.4449 7.67208 87.8281 8.77539 87.3362 8.99865V11.6349C87.3498 11.8082 87.3362 11.9679 87.3362 12.0931V17.5642H91.0206V10.7652C91.0206 10.0143 91.2581 9.08886 92.1064 9.08886C93.2778 9.08886 93.1078 10.727 93.1078 11.045V14.8014C93.1078 17.0249 93.9035 17.5597 95.4273 17.5597H98V16.9308C97.7564 16.9397 97.5129 16.9103 97.2783 16.8438ZM54.8099 17.5662L51.3617 12.5643C53.3269 11.5635 53.5437 10.749 53.5437 9.77032C53.5437 7.33914 50.96 7.26516 49.9151 7.45791C48.987 7.6286 47.8876 8.17831 47.4288 8.42428V0.904242C47.1737 1.04053 46.0704 1.72329 45.2046 2.14384C44.7471 2.37749 44.1993 2.62735 43.6983 2.85126V17.5655H47.4326V13.0225L47.5027 13.1361L50.2331 17.5779L54.8099 17.5662ZM49.9164 10.1253C49.8074 12.0607 47.4301 12.2748 47.4301 12.2748V9.36275C47.8526 9.1304 48.0635 8.95322 48.4737 8.87404C49.3673 8.69686 49.9774 9.02526 49.9164 10.126V10.1253ZM16.9112 17.6311L16.8936 10.7192C16.8936 9.9501 17.1987 9.40818 17.4881 9.40818C17.9295 9.39065 18.4389 10.3518 19.134 10.2999C19.48 10.2728 19.8027 10.1148 20.0361 9.85794C20.2724 9.59833 20.4048 9.25696 20.4067 8.90195C20.4067 8.06279 19.6428 7.4352 18.829 7.45077C17.9463 7.46894 17.2843 8.06278 16.7917 8.83251L16.6989 8.9688C16.4218 7.81357 15.6819 7.52346 14.5027 7.52346H11.9313V8.153H12.0637C12.2163 8.153 12.5051 8.22244 12.6582 8.23996C12.9723 8.32044 13.1398 8.7371 13.2008 9.48346C13.2008 9.93127 13.1911 10.518 13.1911 11.1475V17.6298L16.9112 17.6311ZM9.13736 7.5955C8.39897 7.44402 7.63414 7.48333 6.91517 7.70972C6.19167 7.93932 5.53723 8.34653 5.01163 8.89416V3.09204L4.97853 2.73249C4.7053 1.57726 3.75126 1.28651 2.57266 1.28651H0V1.91604H0.132397C0.284914 1.91604 0.573073 1.98549 0.726887 2.00301C1.02673 2.08089 1.19093 2.46575 1.25713 3.1498C1.25713 4.20379 1.2065 11.6894 1.2065 13.2289C1.20715 16.2987 2.54605 17.7609 5.8774 17.7609C10.3283 17.7609 11.6399 15.2408 11.8664 12.944C12.1857 9.76059 10.9007 7.94921 9.13736 7.59615V7.5955ZM6.05653 16.8263C4.92726 16.8659 5.01682 16.1533 5.01682 16.1533V9.70412C6.80548 8.48399 8.25017 9.35885 8.30728 12.4559C8.34558 14.1128 7.89711 16.7679 6.05653 16.8263Z" fill="#889494"/>
</g>
<defs>
<clipPath id="clip0_32_279">
<rect width="98" height="21" fill="white" transform="translate(0 0.00390625)"/>
</clipPath>
</defs>
</svg>
