<svg width="108" height="24" viewBox="0 0 108 24" fill="none" xmlns="http://www.w3.org/2000/svg">
<g clip-path="url(#clip0_183_1365)">
<path d="M106.211 3.52387C105.789 3.15832 105.178 2.98651 104.228 2.9661C103.366 2.94761 102.341 3.13315 101.181 3.51586C101.007 3.57688 100.869 3.67318 100.745 3.79522C99.5564 4.91098 98.4175 6.07809 97.3312 7.29322L97.2477 7.38571C97.2246 7.41183 97.2212 7.44997 97.2381 7.4801C97.2557 7.51061 97.2911 7.52624 97.3255 7.51862L97.4471 7.49287C99.1963 7.11893 100.962 6.83309 102.695 6.64354C102.809 6.63096 102.926 6.6691 103.011 6.74671C103.096 6.82508 103.145 6.93663 103.143 7.05276C103.114 8.77202 103.177 10.4999 103.33 12.1888L103.34 12.299C103.343 12.3328 103.366 12.3608 103.4 12.3698C103.406 12.3715 103.412 12.3726 103.42 12.3728C103.445 12.3732 103.472 12.3608 103.488 12.3383L103.551 12.2477C104.527 10.8551 105.59 9.5014 106.706 8.22112C106.832 8.07867 106.864 7.98809 106.888 7.85881C107.239 5.60829 106.696 3.94491 106.211 3.52387ZM83.3128 5.00857H85.1625V18.9289H83.4653V17.9564H83.4272C82.7788 18.7001 81.5965 19.2149 80.5668 19.2149C77.8971 19.2149 76.1809 17.1173 76.1809 13.8756C76.1809 10.7674 77.9925 8.53632 80.5477 8.53632C81.5584 8.53632 82.6072 9.01305 83.2746 9.79487H83.3128V5.00857ZM83.3128 12.6171C83.3128 11.2632 82.2449 10.2335 80.8528 10.2335C79.0413 10.2335 78.0306 11.5492 78.0306 13.8756C78.0306 16.2211 79.0413 17.5369 80.8528 17.5369C82.2449 17.5369 83.3128 16.5834 83.3128 15.3249V12.6171ZM75.0368 13.8756C75.0368 17.0983 73.2252 19.2149 70.4602 19.2149C67.6571 19.2149 65.8264 17.0983 65.8264 13.8756C65.8264 10.7292 67.7143 8.53632 70.4602 8.53632C73.168 8.53632 75.0368 10.7292 75.0368 13.8756ZM73.2061 13.8756C73.2061 11.6636 72.1383 10.2335 70.4602 10.2335C68.7249 10.2335 67.6571 11.6255 67.6571 13.8756C67.6571 16.1258 68.7249 17.5369 70.4602 17.5369C72.1383 17.5369 73.2061 16.1067 73.2061 13.8756ZM64.6823 13.8756C64.6823 17.0983 62.8707 19.2149 60.1057 19.2149C57.3025 19.2149 55.4719 17.0983 55.4719 13.8756C55.4719 10.7292 57.3598 8.53632 60.1057 8.53632C62.8135 8.53632 64.6823 10.7292 64.6823 13.8756ZM62.8516 13.8756C62.8516 11.6636 61.7838 10.2335 60.1057 10.2335C58.3704 10.2335 57.3025 11.6255 57.3025 13.8756C57.3025 16.1258 58.3704 17.5369 60.1057 17.5369C61.7838 17.5369 62.8516 16.1067 62.8516 13.8756ZM50.533 8.53632C49.408 8.53632 48.2638 9.07025 47.7299 9.83301H47.6917V5.00857H45.842V18.9289H47.6917V12.5789C47.6917 11.206 48.6833 10.2525 50.0944 10.2525C51.4865 10.2525 52.2874 11.1678 52.2874 12.7506V18.9289H54.1371V12.2929C54.1371 9.98556 52.745 8.53632 50.533 8.53632ZM40.2929 8.53632C39.2251 8.53632 38.0809 9.05119 37.5279 9.79487H37.4898V8.82236H35.6782V18.9289H37.5279V12.5789C37.5279 11.1488 38.4623 10.2525 39.9306 10.2525C41.3799 10.2525 42.0664 11.0916 42.0664 12.8459V18.9289H43.9351V12.312C43.9351 9.98556 42.524 8.53632 40.2929 8.53632ZM31.7309 8.82236H33.5806V18.9289H31.7309V8.82236ZM31.6547 5.00857H33.6569V6.97267H31.6547V5.00857ZM30.2054 13.8756C30.2054 17.1173 28.4892 19.2149 25.8195 19.2149C24.7898 19.2149 23.6075 18.7001 22.9592 17.9564H22.921V18.9289H21.2239V5.00857H23.0736V9.79487H23.1117C23.7791 9.03212 24.847 8.53632 25.8577 8.53632C28.4129 8.53632 30.2054 10.7292 30.2054 13.8756ZM28.3557 13.8756C28.3557 11.5492 27.345 10.2335 25.5335 10.2335C24.1414 10.2335 23.0736 11.2632 23.0736 12.6171V15.3249C23.0736 16.5834 24.1414 17.5369 25.5335 17.5369C27.345 17.5369 28.3557 16.2211 28.3557 13.8756ZM19.7937 13.8756C19.7937 17.0983 17.9821 19.2149 15.2171 19.2149C12.414 19.2149 10.5833 17.0983 10.5833 13.8756C10.5833 10.7292 12.4712 8.53632 15.2171 8.53632C17.9249 8.53632 19.7937 10.7292 19.7937 13.8756ZM17.9631 13.8756C17.9631 11.6636 16.8952 10.2335 15.2171 10.2335C13.4818 10.2335 12.414 11.6255 12.414 13.8756C12.414 16.1258 13.4818 17.5369 15.2171 17.5369C16.8952 17.5369 17.9631 16.1067 17.9631 13.8756ZM7.28267 12.8957C8.69454 13.4164 9.34384 14.6815 9.34384 16.8122V18.9289H7.49414V16.8122C7.49414 14.4858 6.73138 13.6468 4.63378 13.6468H1.90691V18.9289H0V5.58064H5.22492C7.97087 5.58064 9.72522 7.08709 9.72522 9.45163C9.72522 11.1949 8.73001 12.3886 7.28267 12.8957ZM7.79925 9.64232C7.79925 8.09774 6.86486 7.31591 5.0533 7.31591H1.90691V11.9497H5.07237C6.8458 11.9497 7.79925 11.1297 7.79925 9.64232Z" fill="#889494"/>
<path d="M97.9184 19.4101L97.7797 19.4566C96.8833 19.7545 95.5578 20.2131 94.3679 20.76C94.3042 20.79 94.2623 20.8735 94.2623 20.8735C94.2401 20.9244 94.2127 20.9875 94.1814 21.0588L94.1768 21.068C94.0435 21.3714 93.8597 21.8279 93.781 22.0136L93.7197 22.1599C93.7102 22.1831 93.7157 22.2098 93.7342 22.2274C93.7453 22.2379 93.7586 22.2438 93.775 22.2443C93.7834 22.2443 93.7932 22.2426 93.8019 22.238L93.9457 22.1698C94.2712 22.0149 94.6835 21.78 95.1156 21.5746L95.1307 21.5676C95.9523 21.1778 96.8801 20.7377 97.4388 20.4715C97.4388 20.4711 97.5284 20.4233 97.5738 20.3334L97.992 19.4948C98.003 19.4729 97.9996 19.4464 97.9843 19.4277C97.9674 19.4094 97.9416 19.4025 97.9184 19.4101ZM94.5773 18.1102C94.6354 17.9956 94.9074 17.4739 94.9686 17.3572L94.9796 17.3371C96.7946 13.9133 99.0066 10.6842 101.553 7.73917L101.623 7.65794C101.634 7.64539 101.64 7.62998 101.642 7.61368C101.644 7.59738 101.641 7.58093 101.633 7.56641C101.616 7.53666 101.583 7.52045 101.551 7.52484L101.444 7.53933C99.7728 7.76949 98.082 8.08832 96.4161 8.48648C96.251 8.53263 96.1442 8.64037 96.1209 8.66535C94.8742 10.1584 93.6934 11.7303 92.6103 13.3407C92.5561 13.4221 92.5502 13.6166 92.5502 13.6166C92.5502 13.6166 92.8231 15.7136 93.2205 17.259C92.2358 20.0909 91.3567 23.8231 91.3567 23.8231C91.3533 23.835 91.3526 23.8475 91.3547 23.8597C91.3568 23.872 91.3617 23.8835 91.3689 23.8936C91.3838 23.914 91.4074 23.9258 91.433 23.9266H91.9932C92.0287 23.9272 92.06 23.906 92.0724 23.8734L92.1105 23.7685C92.6826 22.2081 93.3353 20.667 94.0561 19.1657C94.2239 18.8159 94.5773 18.1102 94.5773 18.1102Z" fill="#889494"/>
<path d="M102.375 8.35116L102.374 8.24437C102.373 8.21081 102.352 8.18068 102.321 8.16943C102.29 8.15761 102.254 8.16657 102.232 8.19231L102.162 8.27316C99.1932 11.7069 96.6978 15.5182 94.7452 19.6009L94.6998 19.6962C94.6849 19.7263 94.691 19.7628 94.7135 19.787C94.7289 19.803 94.7493 19.8118 94.7715 19.812C94.7814 19.8123 94.7934 19.8103 94.8035 19.8061L94.9013 19.7654C96.5689 19.0746 98.2722 18.476 99.9642 17.9871C100.065 17.9577 100.151 17.887 100.199 17.7933C100.941 16.3477 102.663 13.5492 102.663 13.5492C102.707 13.486 102.696 13.3926 102.696 13.3926C102.696 13.3926 102.394 10.045 102.375 8.35116Z" fill="#889494"/>
<path d="M104.231 2.9661C105.181 2.98651 105.792 3.15832 106.214 3.52387C106.7 3.94491 107.242 5.60829 106.891 7.85881C106.867 7.9881 106.835 8.07867 106.71 8.22112C105.593 9.50141 104.53 10.8551 103.554 12.2477L103.491 12.3383C103.475 12.3608 103.448 12.3732 103.423 12.3728C103.415 12.3726 103.409 12.3715 103.403 12.3698C103.37 12.3608 103.346 12.3328 103.343 12.299L103.333 12.1888C103.18 10.4999 103.117 8.77202 103.146 7.05277C103.148 6.93664 103.099 6.82508 103.014 6.74671C102.929 6.6691 102.812 6.63096 102.698 6.64355C100.965 6.83309 99.1995 7.11893 97.4503 7.49288L97.3286 7.51862C97.2943 7.52625 97.2588 7.51061 97.2413 7.4801C97.2243 7.44997 97.2278 7.41183 97.2508 7.38571L97.3344 7.29322C98.4207 6.0781 99.5596 4.91098 100.748 3.79522C100.872 3.67318 101.01 3.57688 101.184 3.51586C102.344 3.13315 103.369 2.94761 104.231 2.9661Z" fill="#889494"/>
</g>
<defs>
<clipPath id="clip0_183_1365">
<rect width="108" height="24" fill="white" transform="translate(0 0.000976562)"/>
</clipPath>
</defs>
</svg>
