<svg width="49" height="24" viewBox="0 0 49 24" fill="none" xmlns="http://www.w3.org/2000/svg">
<path d="M43.3426 8.12299C40.3771 8.12299 37.9639 10.5466 37.9639 13.5261C37.9639 16.5056 40.3771 18.9293 43.3426 18.9293C46.3075 18.9293 48.72 16.5056 48.72 13.5261C48.72 10.5466 46.3075 8.12299 43.3426 8.12299V8.12299ZM43.3426 16.3686C41.783 16.3686 40.5127 15.092 40.5127 13.5261C40.5127 11.9595 41.783 10.6837 43.3426 10.6837C44.9009 10.6837 46.1719 11.9595 46.1719 13.5261C46.1719 15.0927 44.9016 16.3686 43.3419 16.3686H43.3426ZM27.504 12.4319L26.5635 11.9602C26.1552 11.7571 25.8992 11.5999 25.7962 11.4837C25.6981 11.3807 25.6422 11.2447 25.6397 11.1025C25.6397 10.9202 25.7218 10.7665 25.8832 10.6468C26.0432 10.5216 26.2706 10.4646 26.5593 10.4646C27.0873 10.4646 27.6724 10.7832 28.3166 11.4253L29.904 9.83012C29.514 9.29895 29.0039 8.86751 28.4153 8.57099C27.8345 8.27876 27.1928 8.12811 26.5426 8.13134C25.5736 8.13134 24.7736 8.41725 24.1503 8.99325C23.5277 9.56925 23.2146 10.2614 23.2146 11.0732C23.2146 12.3324 24.039 13.3814 25.6932 14.2141L26.5593 14.6489C27.3058 15.0266 27.6772 15.4113 27.6772 15.8092C27.6772 16.0249 27.5736 16.2113 27.3677 16.3769C27.1618 16.5432 26.8891 16.6218 26.551 16.6218C26.2379 16.6218 25.879 16.5139 25.4748 16.2948C25.0721 16.0792 24.7138 15.7894 24.4188 15.4406L22.8397 17.1686C23.7301 18.3372 24.9176 18.9258 26.4105 18.9258C27.5326 18.9258 28.4279 18.619 29.0915 18.0096C29.7593 17.4009 30.0932 16.6385 30.0932 15.7265C30.0932 15.0426 29.9082 14.4423 29.5409 13.9324C29.1701 13.4225 28.4898 12.9258 27.504 12.4326V12.4319ZM11.5346 17.7522V8.33795H8.9816V8.96821C8.12135 8.41528 7.12004 8.12184 6.09742 8.12299C3.13255 8.12299 0.720032 10.5466 0.720032 13.5261C0.720032 16.5056 3.13255 18.9293 6.09812 18.9293C7.10847 18.9308 8.09841 18.6449 8.95238 18.1049C8.95238 18.1877 8.94821 18.2621 8.94821 18.3122C8.94821 19.8781 7.67794 21.1546 6.11899 21.1546C5.58891 21.1534 5.06997 21.0025 4.62194 20.7192L3.35934 22.9404C4.1919 23.4482 5.14793 23.7177 6.12316 23.7195C9.08873 23.7195 11.5346 21.2952 11.5346 18.3157C11.5346 18.2002 11.5423 17.86 11.5346 17.7522V17.7522ZM6.09812 16.3679C4.53986 16.3679 3.2689 15.092 3.2689 13.5261C3.2689 11.9595 4.53916 10.6837 6.09812 10.6837C7.65708 10.6837 8.92734 11.9595 8.92734 13.5261C8.92734 15.092 7.65708 16.3686 6.09812 16.3686V16.3679ZM21.7044 8.33447H19.1388V13.4712C19.143 14.2009 19.143 15.4607 18.6073 15.9992C18.3513 16.2559 18.071 16.4882 17.4811 16.4882C16.887 16.4882 16.6066 16.2559 16.3513 15.9992C15.815 15.46 15.8192 14.1967 15.8226 13.4712V8.33447H13.2578V13.4559C13.2494 14.5119 13.2369 16.4722 14.5239 17.7731C15.2786 18.5355 16.1781 18.9251 17.4769 18.9251C18.7764 18.9251 19.6752 18.5397 20.4299 17.7731C21.7169 16.4722 21.7044 14.5077 21.696 13.4559L21.7044 8.33377V8.33447ZM36.2428 15.9087C36.0369 16.0659 35.5374 16.4145 34.9726 16.3359C34.5106 16.2732 34.1357 15.9338 34.0779 14.7985V10.539H37.0929V8.32612H34.0779V5.45447H31.5207V6.01795H31.5166V14.4632C31.5166 15.8058 31.8546 18.9251 34.9684 18.9251C36.544 18.9007 37.5006 18.043 37.9013 17.7077L37.9548 17.6659L36.4202 15.7682C36.416 15.7717 36.3089 15.8586 36.2428 15.9087V15.9087Z" fill="#889494"/>
</svg>
