<svg width="106" height="13" viewBox="0 0 106 13" fill="none" xmlns="http://www.w3.org/2000/svg">
<path d="M21.5853 9.25668L16.4077 1.20086H13.6136V12.7092H15.9971V4.65335L21.1747 12.7092H23.9688V1.20086H21.5853V9.25668Z" fill="#889494"/>
<path d="M25.9402 3.42069H29.8033V12.7092H32.2687V3.42069H36.1318V1.20086H25.9402V3.42069Z" fill="#889494"/>
<path d="M46.0005 5.78782H40.5759V1.20086H38.1106V12.7092H40.5759V8.00765H46.0005V12.7092H48.4659V1.20086H46.0005V5.78782Z" fill="#889494"/>
<path d="M53.9745 3.42069H57.0164C58.2327 3.42069 58.8739 3.86406 58.8739 4.70245C58.8739 5.54084 58.2334 5.98495 57.0164 5.98495H53.9745V3.42069ZM61.34 4.70245C61.34 2.53246 59.7458 1.20086 57.1324 1.20086H51.5085V12.7092H53.9745V8.20479H56.7196L59.1864 12.7092H61.9165L59.1849 7.8611C60.5559 7.33441 61.34 6.22449 61.34 4.70245Z" fill="#889494"/>
<path d="M68.8952 10.6009C66.9558 10.6009 65.7722 9.22023 65.7722 6.96766C65.7722 4.68236 66.9558 3.30166 68.8952 3.30166C70.8182 3.30166 71.9854 4.68236 71.9854 6.96766C71.9854 9.22023 70.8182 10.6009 68.8952 10.6009ZM68.8952 1C65.5758 1 63.2251 3.46607 63.2251 6.96766C63.2251 10.4365 65.5758 12.9026 68.8952 12.9026C72.1981 12.9026 74.5325 10.4365 74.5325 6.96766C74.5325 3.46607 72.1989 1 68.8952 1Z" fill="#889494"/>
<path d="M82.3481 6.31376H79.3055V3.41995H82.3481C83.5651 3.41995 84.2064 3.9139 84.2064 4.86685C84.2064 5.8198 83.5651 6.31376 82.3481 6.31376ZM82.4626 1.20086H76.8387V12.7092H79.3055V8.5336H82.4634C85.0782 8.5336 86.6732 7.15215 86.6732 4.86685C86.6732 2.58156 85.0782 1.20086 82.4626 1.20086Z" fill="#889494"/>
<path d="M103.37 8.84157C102.943 9.95967 102.088 10.6009 100.921 10.6009C98.9819 10.6009 97.7984 9.22023 97.7984 6.96766C97.7984 4.68236 98.9812 3.30166 100.921 3.30166C102.088 3.30166 102.943 3.94292 103.37 5.06101H105.984C105.342 2.59495 103.419 1 100.921 1C97.6012 1 95.2505 3.46607 95.2505 6.96766C95.2505 10.4365 97.6012 12.9026 100.921 12.9026C103.436 12.9026 105.359 11.2913 106 8.84157H103.37Z" fill="#889494"/>
<path d="M87.6551 1.20086L92.2436 12.7092H94.7595L90.171 1.20086H87.6551Z" fill="#889494"/>
<path d="M4.33329 8.15494L5.90294 4.11104L7.47259 8.15494H4.33329ZM4.5877 1.20086L0 12.7092H2.56501L3.50308 10.2922H8.3028L9.24013 12.7092H11.8059L7.21818 1.20086H4.5877Z" fill="#889494"/>
</svg>
