<svg width="72" height="24" viewBox="0 0 72 24" fill="none" xmlns="http://www.w3.org/2000/svg">
<g clip-path="url(#clip0_183_1439)">
<path d="M27.209 18.6916V3.50049H30.0846V18.6916H27.209Z" fill="#889494"/>
<path d="M54.793 8.36784H57.5391V9.62724C58.1227 8.62022 59.4855 8.07422 60.6528 8.07422C62.1021 8.07422 63.2694 8.68299 63.8098 9.79468C64.6525 8.53526 65.7779 8.07422 67.1833 8.07422C69.1507 8.07422 71.0318 9.22837 71.0318 11.9977V18.6911H68.2426V12.5646C68.2426 11.4523 67.6799 10.6133 66.3609 10.6133C65.1281 10.6133 64.3928 11.5367 64.3928 12.649V18.6918H61.5394V12.5646C61.5394 11.4523 60.9557 10.6133 59.6577 10.6133C58.4034 10.6133 57.6679 11.5157 57.6679 12.649V18.6918H54.793V8.36784Z" fill="#889494"/>
<path d="M36.5845 18.991C33.3449 18.991 30.999 16.6605 30.999 13.5305C30.999 10.4503 33.3374 8.06445 36.5845 8.06445C39.8475 8.06445 42.17 10.4725 42.17 13.5305C42.17 16.6378 39.8227 18.991 36.5845 18.991ZM36.5845 10.5913C34.9136 10.5913 33.5545 11.9097 33.5545 13.5312C33.5545 15.1525 34.9136 16.471 36.5845 16.471C38.2554 16.471 39.6138 15.1525 39.6138 13.5312C39.6138 11.9097 38.2554 10.5913 36.5845 10.5913Z" fill="#889494"/>
<path d="M48.313 18.991C45.0735 18.991 42.7275 16.6605 42.7275 13.5305C42.7275 10.4503 45.0659 8.06445 48.313 8.06445C51.576 8.06445 53.8985 10.4725 53.8985 13.5305C53.8985 16.6378 51.55 18.991 48.313 18.991ZM48.313 10.5562C46.6231 10.5562 45.2482 11.8907 45.2482 13.5298C45.2482 15.1691 46.6231 16.5036 48.313 16.5036C50.0029 16.5036 51.3779 15.1691 51.3779 13.5298C51.3773 11.8907 50.0023 10.5562 48.313 10.5562Z" fill="#889494"/>
<path d="M21.4149 9.94121H15.154L20.5762 6.90499L19.3855 4.9041L13.9633 7.9403L17.0931 2.68184L15.03 1.52626L11.9002 6.78473V0.712891H9.51857V6.78531L6.38755 1.52626L4.32516 2.68125L7.45558 7.93972L2.03335 4.9041L0.84252 6.90441L6.26475 9.94063H0.00390625V12.2506H6.26415L0.84252 15.2868L2.03335 17.2877L7.45498 14.2521L4.32456 19.5105L6.38755 20.6655L9.51797 15.4065V21.4789H11.8996V15.4071L15.0295 20.6655L17.0924 19.5105L13.962 14.2515L19.3842 17.2877L20.5751 15.2868L15.1534 12.2512H21.4136V9.94121H21.4149ZM10.7094 14.2375C8.91358 14.2375 7.45797 12.8258 7.45797 11.084C7.45797 9.34221 8.91358 7.93043 10.7094 7.93043C12.5052 7.93043 13.9608 9.34221 13.9608 11.084C13.9608 12.8258 12.5052 14.2375 10.7094 14.2375Z" fill="#889494"/>
</g>
<defs>
<clipPath id="clip0_183_1439">
<rect width="72" height="24" fill="white" transform="translate(0 0.000976562)"/>
</clipPath>
</defs>
</svg>
