<svg width="119" height="32" viewBox="0 0 119 32" fill="none" xmlns="http://www.w3.org/2000/svg">
<path fill-rule="evenodd" clip-rule="evenodd" d="M24.8402 17.0749C25.3446 21.3671 22.737 25.4163 18.6271 26.7227C14.5171 28.0292 10.0636 26.2247 8.01576 22.4232C4.52391 22.567 1.35306 20.4959 0.101077 17.3096C-0.0235201 16.9917 0.0112137 16.6331 0.194508 16.3449C0.377801 16.0568 0.687506 15.8739 1.0276 15.8529L5.68503 15.5643L4.52877 11.8854C4.22334 10.9135 4.42421 9.8523 5.06367 9.05939C5.70314 8.26649 6.69607 7.84742 7.70791 7.94337C10.2381 8.18516 11.9184 8.17537 12.7486 7.91403C13.579 7.65268 14.9375 6.7086 16.8242 5.08175C17.5967 4.41682 18.6502 4.1852 19.6284 4.46525C20.6066 4.7453 21.3787 5.49953 21.6834 6.47282L22.8279 10.1187L26.746 7.71009C27.0366 7.53121 27.3949 7.50262 27.7098 7.63321C28.0247 7.7638 28.2581 8.03776 28.3375 8.3701C29.125 11.6762 27.7378 15.1717 24.8402 17.0749ZM12.9232 28.9732L10.7976 27.9548C10.0539 27.6143 9.17488 27.9357 8.82368 28.6766C8.47241 29.4175 8.77913 30.3034 9.51238 30.6659L11.6392 31.6837C12.3829 32.0243 13.262 31.7028 13.6133 30.9619C13.9645 30.2209 13.6577 29.335 12.9244 28.9726L12.9232 28.9732ZM27.7626 22.662C27.4177 22.4658 27.0089 22.4154 26.6267 22.5219C26.2444 22.6285 25.92 22.8832 25.7252 23.2298L24.5656 25.2861C24.1859 26.0039 24.4443 26.8938 25.1486 27.2941C25.853 27.6944 26.7476 27.4598 27.1673 26.7648L28.3259 24.7082C28.7339 23.9866 28.4818 23.0706 27.7626 22.662Z" fill="#889494"/>
<path d="M78.8385 7.83984C77.8298 7.83984 77.0393 8.59108 77.0393 9.55979C77.0393 10.5087 77.8298 11.2797 78.8385 11.2797C79.8072 11.2797 80.637 10.5087 80.637 9.55979C80.637 8.59108 79.8072 7.83984 78.8385 7.83984ZM43.8263 7.93869C42.6598 7.93869 41.2562 9.38187 41.2562 11.8926V13.3556C40.5247 12.8415 39.5165 12.4857 38.3699 12.4857C35.2858 12.4857 33.1309 14.8383 33.1309 17.9223C33.1309 21.046 35.2462 23.359 38.3699 23.359C39.9514 23.359 41.2957 22.667 41.9679 21.8763C42.5215 22.7066 43.2727 23.1613 43.8065 23.1613C44.1821 23.1613 44.4194 22.924 44.4194 22.4496V8.65039C44.4194 8.17592 44.2019 7.93869 43.8263 7.93869ZM74.2514 7.93869C73.0851 7.93869 71.6815 9.38187 71.6815 11.8926V21.9158C71.6815 22.6473 71.9581 22.9636 72.7294 22.9636H73.7972C74.5679 22.9636 74.8445 22.6473 74.8445 21.9158V8.65039C74.8445 8.17592 74.627 7.93869 74.2514 7.93869ZM106.16 12.1496C105.982 12.1496 105.784 12.2089 105.527 12.3473C104.717 12.7822 104.262 12.8811 103.59 12.8811C102.581 12.8811 102.067 12.5845 100.328 12.5845C97.3818 12.5845 95.5041 14.3638 95.5041 16.7559C95.5041 17.9223 96.0573 18.9701 97.066 19.8005C95.7415 20.4726 94.9503 21.9751 94.9503 23.4578C94.9503 26.2058 97.1843 28.0048 100.486 28.0048C103.827 28.0048 106.021 26.2058 106.021 23.4578C106.021 21.9751 105.231 20.4529 103.906 19.8005C104.875 18.9701 105.468 17.9223 105.468 16.7559C105.468 16.2617 105.369 15.807 105.171 15.3918C106.278 14.9965 106.773 14.1068 106.773 13.0393C106.773 12.5252 106.595 12.1496 106.16 12.1496ZM64.268 12.4857C61.0653 12.4857 58.6535 14.7394 58.6535 17.9223C58.6535 21.0657 61.0653 23.359 64.268 23.359C67.4707 23.359 69.8823 21.0657 69.8823 17.9223C69.8823 14.7394 67.4707 12.4857 64.268 12.4857ZM88.6836 12.4857C87.4183 12.4857 86.0938 13.0195 85.2634 14.008C84.7095 13.1381 83.9582 12.6834 83.405 12.6834C83.0293 12.6834 82.792 12.9206 82.792 13.3951V21.9158C82.792 22.6473 83.0692 22.9636 83.8398 22.9636H84.9077C85.6783 22.9636 85.9556 22.6473 85.9556 21.9158V18.1991C85.9556 17.2897 86.173 16.6175 86.5486 16.1826C86.9436 15.7279 87.5367 15.4907 88.2089 15.4907C88.921 15.4907 89.4542 15.7279 89.8106 16.1826C90.1464 16.6175 90.3046 17.2699 90.3046 18.2189V21.9158C90.3046 22.6868 90.6211 22.9636 91.3525 22.9636H92.4197C93.1517 22.9636 93.4676 22.6868 93.4676 21.9158V18.12C93.4676 16.1233 93.0726 14.8976 92.2621 13.9486C91.4509 13.0195 90.2255 12.4857 88.6836 12.4857ZM112.881 12.4857C109.679 12.4857 107.267 14.7394 107.267 17.9223C107.267 21.0657 109.679 23.359 112.881 23.359C116.084 23.359 118.496 21.0657 118.496 17.9223C118.496 14.7394 116.084 12.4857 112.881 12.4857ZM56.0043 12.8811H54.9368C54.1657 12.8811 53.889 13.1974 53.889 13.9289V17.606C53.889 18.6143 53.6913 19.2864 53.2959 19.7213C52.94 20.1168 52.3865 20.354 51.7736 20.354C51.1607 20.354 50.6863 20.1563 50.3502 19.8005C49.9351 19.3655 49.7373 18.7131 49.7373 17.5072V13.9289C49.7373 13.1579 49.421 12.8811 48.6896 12.8811H47.622C46.8905 12.8811 46.5742 13.1579 46.5742 13.9289V17.8037C46.5742 19.8202 47.0684 21.2239 48.0174 22.1333C48.8082 22.8845 49.8955 23.359 51.2596 23.359C52.6237 23.359 53.8099 22.7857 54.6007 21.8565C55.1543 22.7066 55.9054 23.1613 56.4392 23.1613C56.8149 23.1613 57.0521 22.924 57.0521 22.4496V13.9289C57.0521 13.1974 56.7753 12.8811 56.0043 12.8811ZM79.3717 12.8811H78.3046C77.5732 12.8811 77.2567 13.1579 77.2567 13.9289V21.9158C77.2567 22.6868 77.5732 22.9636 78.3046 22.9636H79.3717C80.1038 22.9636 80.4196 22.6868 80.4196 21.9158V13.9289C80.4196 13.1579 80.1038 12.8811 79.3717 12.8811ZM100.486 15.0755C101.652 15.0755 102.423 15.8268 102.423 16.9338C102.423 17.9619 101.573 18.7922 100.486 18.7922C99.4184 18.7922 98.5487 17.9619 98.5487 16.9338C98.5487 15.8268 99.3393 15.0755 100.486 15.0755ZM38.8048 20.5122C37.4209 20.5122 36.3335 19.4841 36.3335 17.9223C36.3335 16.3606 37.4209 15.3325 38.8048 15.3325C40.1689 15.3325 41.2562 16.3606 41.2562 17.9223C41.2562 19.4841 40.1689 20.5122 38.8048 20.5122ZM64.268 20.5122C62.7853 20.5122 61.8561 19.4248 61.8561 17.9223C61.8561 16.4199 62.7853 15.3325 64.268 15.3325C65.7507 15.3325 66.6802 16.4199 66.6802 17.9223C66.6802 19.4248 65.7507 20.5122 64.268 20.5122ZM112.881 20.5122C111.399 20.5122 110.47 19.4248 110.47 17.9223C110.47 16.4199 111.399 15.3325 112.881 15.3325C114.364 15.3325 115.293 16.4199 115.293 17.9223C115.293 19.4248 114.364 20.5122 112.881 20.5122ZM100.486 25.4348C99.1019 25.4348 98.074 24.5254 98.074 23.359C98.074 22.1135 99.0228 21.2832 100.486 21.2832C101.949 21.2832 102.898 22.1333 102.898 23.359C102.898 24.5056 101.85 25.4348 100.486 25.4348Z" fill="#889494"/>
</svg>
