<svg width="57" height="20" viewBox="0 0 57 20" fill="none" xmlns="http://www.w3.org/2000/svg">
<g clip-path="url(#clip0_879_261)">
<path d="M0.75 19.25V0.75H19.25V19.25H0.75Z" stroke="#889494" stroke-width="1.5"/>
<path d="M37.75 19.25V0.75H56.25V19.25H37.75Z" stroke="#889494" stroke-width="1.5"/>
<path d="M19.25 19.25V0.75H37.75V19.25H19.25Z" stroke="#889494" stroke-width="1.5"/>
<path d="M11.0005 4.80617C9.70451 4.80977 8.40491 5.27417 8.02691 6.56837L7.89371 5.03657H5.85791V14.9258H8.14931V8.83457C8.14931 7.77797 9.04031 6.85817 10.1437 6.85097C11.2795 6.83837 12.1363 7.67717 12.1363 8.93177V14.9276H14.4601V8.96417C14.4277 6.60797 13.6231 4.79897 11.0005 4.80617Z" fill="#889494"/>
<path d="M50.0007 5.04252C47.6391 4.38372 46.4259 5.62032 46.1685 6.57252L46.0335 5.03892H44.0013V14.9209H46.2927V8.95932C46.2927 7.51212 47.5779 6.75972 48.5877 6.86772C49.3995 6.95592 49.7145 7.20072 50.0007 7.35732V5.04252Z" fill="#889494"/>
<path d="M29.0301 4.89551C27.6783 4.89551 26.5047 5.75051 26.2257 6.66491L26.0889 5.12951H24.0585V16.7323H26.3463V13.6273C26.5263 14.3617 27.5991 15.0961 29.0931 15.0961C32.3349 15.0961 33.5715 12.5833 33.5715 10.0561C33.5697 7.70891 32.2917 4.89371 29.0301 4.89551ZM28.9581 13.0225C27.1977 13.0225 26.4093 11.5465 26.4093 10.0705C26.4093 8.59271 27.2517 7.02311 28.9581 7.02311C30.6645 7.02311 31.4889 8.57651 31.4889 10.0705C31.4889 11.5645 30.7005 13.0225 28.9581 13.0225Z" fill="#889494"/>
</g>
<defs>
<clipPath id="clip0_879_261">
<rect width="57" height="20" fill="white"/>
</clipPath>
</defs>
</svg>
